<mxfile host="app.diagrams.net" agent="Mozilla/5.0 (Windows NT 10.0; Win64; x64; rv:142.0) Gecko/20100101 Firefox/142.0" version="27.2.0">
  <diagram name="Page-1" id="cO33EK2BFYSTRGKtgS0Q">
    <mxGraphModel dx="946" dy="506" grid="1" gridSize="10" guides="1" tooltips="1" connect="1" arrows="1" fold="1" page="1" pageScale="1" pageWidth="850" pageHeight="1100" math="0" shadow="0">
      <root>
        <mxCell id="0" />
        <mxCell id="1" parent="0" />
        <mxCell id="LMXW15Kmo0TuasINjzTC-1" value="BankAccount" style="swimlane;fontStyle=1;align=center;verticalAlign=top;childLayout=stackLayout;horizontal=1;startSize=26;horizontalStack=0;resizeParent=1;resizeParentMax=0;resizeLast=0;collapsible=1;marginBottom=0;whiteSpace=wrap;html=1;" vertex="1" parent="1">
          <mxGeometry x="230" y="10" width="160" height="240" as="geometry" />
        </mxCell>
        <mxCell id="LMXW15Kmo0TuasINjzTC-2" value="&lt;div&gt;- accountNumber: String&lt;/div&gt;&lt;div&gt;&lt;div&gt;- owner: String&lt;/div&gt;&lt;div&gt;&lt;div&gt;- balance: double&lt;/div&gt;&amp;nbsp;&lt;/div&gt;&amp;nbsp;&lt;/div&gt;" style="text;strokeColor=none;fillColor=none;align=left;verticalAlign=top;spacingLeft=4;spacingRight=4;overflow=hidden;rotatable=0;points=[[0,0.5],[1,0.5]];portConstraint=eastwest;whiteSpace=wrap;html=1;" vertex="1" parent="LMXW15Kmo0TuasINjzTC-1">
          <mxGeometry y="26" width="160" height="64" as="geometry" />
        </mxCell>
        <mxCell id="LMXW15Kmo0TuasINjzTC-3" value="" style="line;strokeWidth=1;fillColor=none;align=left;verticalAlign=middle;spacingTop=-1;spacingLeft=3;spacingRight=3;rotatable=0;labelPosition=right;points=[];portConstraint=eastwest;strokeColor=inherit;" vertex="1" parent="LMXW15Kmo0TuasINjzTC-1">
          <mxGeometry y="90" width="160" height="8" as="geometry" />
        </mxCell>
        <mxCell id="LMXW15Kmo0TuasINjzTC-4" value="&lt;div&gt;+ getSaldo() : double&lt;/div&gt;&lt;div&gt;+ getOwner() : String&lt;/div&gt;&lt;div&gt;+ deposit(amount : double) : void&lt;/div&gt;&lt;div&gt;+ withdraw(amount : double) : void&lt;/div&gt;&lt;div&gt;+ transfer(amount : double, destination : BankAccount) : void&lt;/div&gt;&lt;div&gt;&lt;br&gt;&lt;/div&gt;" style="text;strokeColor=none;fillColor=none;align=left;verticalAlign=top;spacingLeft=4;spacingRight=4;overflow=hidden;rotatable=0;points=[[0,0.5],[1,0.5]];portConstraint=eastwest;whiteSpace=wrap;html=1;" vertex="1" parent="LMXW15Kmo0TuasINjzTC-1">
          <mxGeometry y="98" width="160" height="142" as="geometry" />
        </mxCell>
        <mxCell id="LMXW15Kmo0TuasINjzTC-9" value="Main" style="swimlane;fontStyle=1;align=center;verticalAlign=top;childLayout=stackLayout;horizontal=1;startSize=26;horizontalStack=0;resizeParent=1;resizeParentMax=0;resizeLast=0;collapsible=1;marginBottom=0;whiteSpace=wrap;html=1;" vertex="1" parent="1">
          <mxGeometry x="40" y="338" width="160" height="52" as="geometry" />
        </mxCell>
        <mxCell id="LMXW15Kmo0TuasINjzTC-12" value="+ main(args: String[]): void" style="text;strokeColor=none;fillColor=none;align=left;verticalAlign=top;spacingLeft=4;spacingRight=4;overflow=hidden;rotatable=0;points=[[0,0.5],[1,0.5]];portConstraint=eastwest;whiteSpace=wrap;html=1;" vertex="1" parent="LMXW15Kmo0TuasINjzTC-9">
          <mxGeometry y="26" width="160" height="26" as="geometry" />
        </mxCell>
        <mxCell id="LMXW15Kmo0TuasINjzTC-13" value="Process" style="swimlane;fontStyle=1;align=center;verticalAlign=top;childLayout=stackLayout;horizontal=1;startSize=26;horizontalStack=0;resizeParent=1;resizeParentMax=0;resizeLast=0;collapsible=1;marginBottom=0;whiteSpace=wrap;html=1;" vertex="1" parent="1">
          <mxGeometry x="380" y="330" width="160" height="60" as="geometry" />
        </mxCell>
        <mxCell id="LMXW15Kmo0TuasINjzTC-15" value="" style="line;strokeWidth=1;fillColor=none;align=left;verticalAlign=middle;spacingTop=-1;spacingLeft=3;spacingRight=3;rotatable=0;labelPosition=right;points=[];portConstraint=eastwest;strokeColor=inherit;" vertex="1" parent="LMXW15Kmo0TuasINjzTC-13">
          <mxGeometry y="26" width="160" height="8" as="geometry" />
        </mxCell>
        <mxCell id="LMXW15Kmo0TuasINjzTC-16" value="+ start(): void" style="text;strokeColor=none;fillColor=none;align=left;verticalAlign=top;spacingLeft=4;spacingRight=4;overflow=hidden;rotatable=0;points=[[0,0.5],[1,0.5]];portConstraint=eastwest;whiteSpace=wrap;html=1;" vertex="1" parent="LMXW15Kmo0TuasINjzTC-13">
          <mxGeometry y="34" width="160" height="26" as="geometry" />
        </mxCell>
        <mxCell id="LMXW15Kmo0TuasINjzTC-22" value="" style="endArrow=block;endFill=1;html=1;edgeStyle=orthogonalEdgeStyle;align=left;verticalAlign=top;rounded=0;" edge="1" parent="1">
          <mxGeometry x="-1" relative="1" as="geometry">
            <mxPoint x="210" y="363.5" as="sourcePoint" />
            <mxPoint x="370" y="363.5" as="targetPoint" />
          </mxGeometry>
        </mxCell>
        <mxCell id="LMXW15Kmo0TuasINjzTC-26" value="1..*" style="endArrow=open;html=1;endSize=12;startArrow=diamondThin;startSize=14;startFill=0;edgeStyle=orthogonalEdgeStyle;align=left;verticalAlign=bottom;rounded=0;exitX=0.167;exitY=0.024;exitDx=0;exitDy=0;exitPerimeter=0;entryX=0.428;entryY=1.03;entryDx=0;entryDy=0;entryPerimeter=0;" edge="1" parent="1" source="LMXW15Kmo0TuasINjzTC-13" target="LMXW15Kmo0TuasINjzTC-4">
          <mxGeometry x="0.83" y="-12" relative="1" as="geometry">
            <mxPoint x="300" y="290" as="sourcePoint" />
            <mxPoint x="460" y="290" as="targetPoint" />
            <Array as="points">
              <mxPoint x="407" y="310" />
              <mxPoint x="298" y="310" />
            </Array>
            <mxPoint as="offset" />
          </mxGeometry>
        </mxCell>
      </root>
    </mxGraphModel>
  </diagram>
</mxfile>
